<svg width="40" height="40" viewBox="0 0 40 40" fill="none" xmlns="http://www.w3.org/2000/svg">
<path d="M30.956 13.9226C30.4343 10.2458 27.2973 7.41935 23.5054 7.41935C23.2982 7.41935 23.093 7.42779 22.8901 7.44434C21.6202 4.25339 18.5228 2 14.9032 2C10.8726 2 7.48948 4.79427 6.55634 8.56586C3.97627 8.96387 2 11.2106 2 13.9226C2 16.317 3.94106 18.2581 6.33548 18.2581H9.01588L8.66468 17.9026C7.64217 16.8675 7.64217 15.1969 8.66468 14.1619C9.69721 13.1167 11.3789 13.1167 12.4114 14.1619L14.7894 16.569C17.0398 15.3337 19.6085 14.6242 22.3236 14.6242C24.8222 14.6242 27.197 15.2248 29.3134 16.2833L31.0224 14.5322C31.0106 14.3281 30.9885 14.1246 30.956 13.9226Z" fill="#44AEFE"/>
<path d="M34.1756 15.1114C33.7221 14.6579 32.9913 14.6624 32.5433 15.1214L29.5924 18.145C27.4457 16.8639 24.9589 16.1242 22.3235 16.1242C19.4796 16.1242 16.8079 16.9862 14.5497 18.4607L11.3443 15.2161C10.899 14.7653 10.177 14.7653 9.73174 15.2161C9.28644 15.6668 9.28644 16.3976 9.73174 16.8484L12.718 19.8712C10.292 22.0582 8.57494 25.0396 7.99646 28.371H36.648C36.0372 24.8504 34.1556 21.7206 31.509 19.5063L34.1856 16.7637C34.6336 16.3047 34.6291 15.565 34.1756 15.1114Z" fill="#86D373"/>
<circle cx="16.5157" cy="24.3226" r="1.74194" fill="white"/>
<circle cx="28.1287" cy="24.3226" r="1.74194" fill="white"/>
<rect x="6.64514" y="29.871" width="31.3548" height="8.12903" rx="2" fill="#44AEFE"/>
<rect x="10.129" y="32.1935" width="8.70968" height="3.48387" rx="1.74194" fill="#FFF4F4"/>
<rect x="25.2258" y="32.1935" width="3.48387" height="3.48387" rx="1.74194" fill="#FFF4F4"/>
<rect x="31.0322" y="32.1935" width="3.48387" height="3.48387" rx="1.74194" fill="#FFF4F4"/>
</svg>
